<?xml version="1.0" encoding="utf-8"?>
<!-- Generator: Adobe Illustrator 23.0.2, SVG Export Plug-In . SVG Version: 6.00 Build 0)  -->
<svg version="1.1" id="Layer_1" xmlns="http://www.w3.org/2000/svg" xmlns:xlink="http://www.w3.org/1999/xlink" x="0px" y="0px"
	 viewBox="0 0 128 20" style="enable-background:new 0 0 128 20;" xml:space="preserve">
<style type="text/css">
	.st0{fill:#2BB4C4;}
</style>
<g>
	<path class="st0" d="M123.8,5.6c-0.1-0.1-0.3-0.1-0.5,0l-4.2,3.2l-2.7-6.2c-0.1-0.3-0.6-0.3-0.7,0L113,8.8l-4.1-3.2
		c-0.1-0.1-0.3-0.1-0.5,0c-0.1,0.1-0.2,0.3-0.1,0.5l2.9,7.4c0.1,0.2,0.2,0.3,0.4,0.3h9.3c0.2,0,0.3-0.1,0.4-0.3L124,6
		C124,5.9,124,5.7,123.8,5.6z M116.1,3.7l2.4,5.5l-2.5,1.9l-2.4-1.9L116.1,3.7z M112.7,9.6l-1.2,2.6l-2-5.1L112.7,9.6z M112.1,12.9
		l1.2-2.8l2,1.6l-1.6,1.2H112.1z M115.1,12.9l0.9-0.7l0.9,0.7H115.1z M118.1,12.9l-1.5-1.2l2.2-1.7l1.3,2.9L118.1,12.9
		C118.1,12.9,118.1,12.9,118.1,12.9z M120.7,12.2l-1.2-2.7l3.2-2.4L120.7,12.2z M121.1,15.1c0,0.2-0.2,0.4-0.4,0.4h-9.2
		c-0.2,0-0.4-0.2-0.4-0.4c0-0.2,0.2-0.4,0.4-0.4h9.2C120.9,14.7,121.1,14.9,121.1,15.1z"/>
</g>
<g>
	<path d="M6.8,11.5c-0.9-0.3-1.5-0.6-1.9-0.9c-0.4-0.4-0.6-0.8-0.6-1.4C4.2,8.5,4.5,8,5,7.6S6.1,7,6.9,7c0.5,0,1,0.1,1.4,0.3
		c0.4,0.2,0.7,0.5,1,0.9C9.5,8.6,9.7,9,9.7,9.4h-1c0-0.5-0.2-0.8-0.5-1.1C7.9,8,7.4,7.9,6.9,7.9C6.4,7.9,6,8,5.7,8.2
		C5.4,8.4,5.3,8.7,5.3,9.1c0,0.3,0.1,0.6,0.4,0.8c0.3,0.2,0.7,0.4,1.4,0.6c0.6,0.2,1.2,0.4,1.5,0.6c0.4,0.2,0.6,0.5,0.8,0.8
		c0.2,0.3,0.3,0.6,0.3,1c0,0.6-0.2,1.1-0.7,1.5C8.4,14.9,7.8,15,7,15c-0.5,0-1-0.1-1.5-0.3c-0.5-0.2-0.8-0.5-1.1-0.8
		C4.1,13.5,4,13.1,4,12.7h1c0,0.5,0.2,0.8,0.5,1.1c0.3,0.3,0.8,0.4,1.4,0.4c0.5,0,1-0.1,1.2-0.3c0.3-0.2,0.4-0.5,0.4-0.9
		s-0.1-0.7-0.4-0.9S7.5,11.7,6.8,11.5z"/>
	<path d="M15.7,12.1c0,0.9-0.2,1.6-0.6,2.1s-1,0.8-1.6,0.8c-0.7,0-1.3-0.2-1.7-0.7v2.8h-1v-8h0.9l0,0.6c0.4-0.5,1-0.8,1.7-0.8
		c0.7,0,1.2,0.3,1.7,0.8C15.5,10.3,15.7,11.1,15.7,12.1L15.7,12.1z M14.7,12c0-0.7-0.1-1.2-0.4-1.5s-0.7-0.6-1.1-0.6
		c-0.6,0-1.1,0.3-1.4,0.8v2.8c0.3,0.5,0.8,0.8,1.4,0.8c0.5,0,0.9-0.2,1.1-0.6C14.6,13.3,14.7,12.7,14.7,12z"/>
	<path d="M16.7,12c0-0.6,0.1-1.1,0.3-1.5c0.2-0.5,0.5-0.8,0.9-1.1C18.4,9.1,18.9,9,19.4,9c0.8,0,1.4,0.3,1.9,0.8
		c0.5,0.5,0.7,1.3,0.7,2.2v0.1c0,0.6-0.1,1.1-0.3,1.5c-0.2,0.4-0.5,0.8-0.9,1S19.9,15,19.4,15c-0.8,0-1.4-0.3-1.9-0.8
		S16.7,13,16.7,12L16.7,12z M17.7,12.1c0,0.6,0.1,1.2,0.4,1.5c0.3,0.4,0.7,0.6,1.2,0.6c0.5,0,0.9-0.2,1.2-0.6S21,12.7,21,12
		c0-0.6-0.2-1.2-0.5-1.5s-0.7-0.6-1.2-0.6c-0.5,0-0.9,0.2-1.2,0.6C17.9,10.8,17.7,11.4,17.7,12.1z"/>
	<path d="M24.2,9.1l0,0.7C24.7,9.3,25.2,9,26,9c1.2,0,1.8,0.7,1.9,2.1v3.8h-1v-3.8c0-0.4-0.1-0.7-0.3-0.9c-0.2-0.2-0.5-0.3-0.9-0.3
		c-0.3,0-0.6,0.1-0.8,0.3c-0.2,0.2-0.4,0.4-0.6,0.7v4.1h-1V9.1H24.2z"/>
	<path d="M32.7,13.4c0-0.3-0.1-0.5-0.3-0.6c-0.2-0.1-0.6-0.3-1.1-0.4c-0.5-0.1-0.9-0.2-1.2-0.4c-0.3-0.2-0.5-0.3-0.7-0.5
		c-0.1-0.2-0.2-0.5-0.2-0.7c0-0.5,0.2-0.9,0.6-1.2C30.3,9.2,30.8,9,31.4,9c0.7,0,1.2,0.2,1.6,0.5c0.4,0.3,0.6,0.8,0.6,1.3h-1
		c0-0.3-0.1-0.5-0.3-0.7c-0.2-0.2-0.5-0.3-0.9-0.3c-0.4,0-0.6,0.1-0.8,0.2c-0.2,0.2-0.3,0.4-0.3,0.6c0,0.2,0.1,0.4,0.3,0.5
		c0.2,0.1,0.5,0.2,1,0.3c0.5,0.1,0.9,0.2,1.2,0.4s0.5,0.3,0.7,0.6c0.1,0.2,0.2,0.5,0.2,0.8c0,0.5-0.2,0.9-0.6,1.2
		c-0.4,0.3-1,0.5-1.6,0.5c-0.5,0-0.9-0.1-1.2-0.2c-0.4-0.2-0.6-0.4-0.8-0.7c-0.2-0.3-0.3-0.6-0.3-1h1c0,0.3,0.2,0.6,0.4,0.8
		s0.6,0.3,1,0.3c0.4,0,0.7-0.1,0.9-0.2C32.6,13.9,32.7,13.6,32.7,13.4z"/>
	<path d="M34.7,12c0-0.6,0.1-1.1,0.3-1.5s0.5-0.8,0.9-1.1C36.4,9.1,36.8,9,37.3,9c0.8,0,1.4,0.3,1.9,0.8c0.5,0.5,0.7,1.3,0.7,2.2
		v0.1c0,0.6-0.1,1.1-0.3,1.5c-0.2,0.4-0.5,0.8-0.9,1c-0.4,0.3-0.9,0.4-1.4,0.4c-0.8,0-1.4-0.3-1.9-0.8C35,13.7,34.7,13,34.7,12
		L34.7,12z M35.7,12.1c0,0.6,0.1,1.2,0.4,1.5c0.3,0.4,0.7,0.6,1.2,0.6c0.5,0,0.9-0.2,1.2-0.6c0.3-0.4,0.4-0.9,0.4-1.7
		c0-0.6-0.2-1.2-0.5-1.5c-0.3-0.4-0.7-0.6-1.2-0.6c-0.5,0-0.9,0.2-1.2,0.6C35.9,10.8,35.7,11.4,35.7,12.1z"/>
	<path d="M44,10c-0.2,0-0.3,0-0.5,0c-0.7,0-1.1,0.3-1.3,0.8v4.1h-1V9.1h1l0,0.7C42.5,9.3,43,9,43.6,9c0.2,0,0.3,0,0.4,0.1V10z"/>
	<path d="M47.3,15c-0.8,0-1.4-0.3-1.9-0.8c-0.5-0.5-0.7-1.2-0.7-2.1V12c0-0.6,0.1-1.1,0.3-1.5c0.2-0.5,0.5-0.8,0.9-1.1
		C46.2,9.2,46.7,9,47.1,9c0.8,0,1.3,0.2,1.8,0.7c0.4,0.5,0.6,1.2,0.6,2.1v0.4h-3.9c0,0.6,0.2,1,0.5,1.4c0.3,0.4,0.7,0.5,1.2,0.5
		c0.4,0,0.6-0.1,0.9-0.2c0.2-0.1,0.5-0.3,0.6-0.6l0.6,0.5C49,14.7,48.2,15,47.3,15z M47.1,9.8c-0.4,0-0.7,0.1-1,0.4
		c-0.3,0.3-0.4,0.7-0.5,1.2h2.9v-0.1c0-0.5-0.2-0.9-0.4-1.2S47.5,9.8,47.1,9.8z"/>
	<path d="M50.4,12c0-0.9,0.2-1.6,0.6-2.1S52,9,52.7,9c0.7,0,1.2,0.2,1.6,0.7v-3h1v8.2h-0.9l0-0.6C54,14.8,53.4,15,52.7,15
		c-0.7,0-1.2-0.3-1.6-0.8C50.6,13.7,50.4,12.9,50.4,12L50.4,12z M51.4,12.1c0,0.7,0.1,1.2,0.4,1.5s0.6,0.6,1.1,0.6
		c0.6,0,1.1-0.3,1.4-0.8v-2.7C54,10.1,53.6,9.9,53,9.9c-0.5,0-0.9,0.2-1.1,0.6S51.4,11.4,51.4,12.1z"/>
	<path d="M64.5,12.1c0,0.9-0.2,1.6-0.6,2.1c-0.4,0.5-1,0.8-1.6,0.8c-0.7,0-1.3-0.3-1.7-0.8l0,0.7h-0.9V6.7h1v3.1
		C61,9.3,61.5,9,62.2,9c0.7,0,1.3,0.3,1.7,0.8C64.3,10.4,64.5,11.1,64.5,12.1L64.5,12.1z M63.5,12c0-0.7-0.1-1.2-0.4-1.6
		c-0.3-0.4-0.6-0.6-1.1-0.6c-0.7,0-1.1,0.3-1.4,0.9v2.5c0.3,0.6,0.8,0.9,1.4,0.9c0.5,0,0.8-0.2,1.1-0.6C63.4,13.3,63.5,12.7,63.5,12
		z"/>
	<path d="M67.6,13.5l1.4-4.3H70l-2.3,6.7c-0.4,1-0.9,1.4-1.7,1.4l-0.2,0l-0.4-0.1v-0.8l0.3,0c0.3,0,0.6-0.1,0.8-0.2
		c0.2-0.1,0.3-0.4,0.5-0.7l0.2-0.6L65,9.1h1.1L67.6,13.5z"/>
	<path d="M81.7,8.2c0,1,0,2.2,0,3.2c0,1,0,2,0,3c0.1,0,0.8,0,0.9,0c0,0.2,0,0.3,0,0.5c0,0-1.1,0-1.5,0c-0.3,0-1.3,0-1.7,0
		c0-0.2,0-0.3,0-0.5l0.8,0l0.1-5.2L78,15h-0.6l-2.5-5.6c0,0.2,0,0.4,0,0.8c0,0.6,0,1.4,0,1.7c0,0.5,0,1.8,0,2.3l1.2,0.2
		c0,0.2,0,0.3,0,0.5c0,0-0.9,0-1.3,0c-0.3,0-1.2,0-1.6,0c0-0.2,0-0.3,0-0.5l0.9-0.2l0.1-6L73,8.2V7.6c0.5,0,0.9,0,1.4,0
		c0.3,0,0.7,0,1,0l2.6,5.7l2.4-5.7c0.5,0,0.9,0,1.3,0c0.3,0,0.6,0,1,0c0,0.1,0,0.4,0,0.5L81.7,8.2z"/>
	<path d="M83.3,14.5l0.7,0c0-0.7,0-1.8,0-2.3c0-0.6,0-1.5,0-2.1l-0.8-0.2c0-0.2,0-0.3,0-0.4c0.4,0,1.8-0.2,2.1-0.2c0,0.9,0,2,0,2.9
		c0,0.5,0,1.5,0,2.3l0.7,0c0,0.2,0,0.3,0,0.5c-0.2,0-0.9,0-1.3,0c-0.3,0-1.1,0-1.4,0C83.3,14.7,83.3,14.7,83.3,14.5z M83.8,7.2
		c0-0.4,0.4-0.9,0.9-0.9c0.6,0,0.8,0.4,0.8,0.8c0,0.4-0.4,0.8-0.9,0.8C84.1,8,83.8,7.6,83.8,7.2z"/>
	<path d="M91.6,9.5v2.3c0,0.3,0,0.8,0,1.3c0,0.5,0,1,0,1.3l0.7,0c0,0.2,0,0.3,0,0.4c-0.4,0.1-1.5,0.3-1.9,0.3c0-0.1-0.1-0.8-0.1-0.9
		c-0.4,0.5-1,0.8-1.6,0.8c-1.4,0-2.1-1.3-2.1-2.7c0-2,1.3-3.1,3-3.1c0.2,0,0.4,0,0.6,0.1c0-0.8,0-1.2,0-1.6l-0.9-0.2
		c0-0.2,0-0.3,0-0.4c0.4,0,1.8-0.2,2.2-0.2C91.6,7.7,91.6,8.5,91.6,9.5z M90.3,10.1c-0.2-0.2-0.5-0.3-0.7-0.3
		c-0.9,0-1.5,0.9-1.5,2.2c0,1.1,0.3,2.3,1.4,2.3c0.3,0,0.6-0.1,0.8-0.3v-2.1C90.3,11.4,90.3,10.6,90.3,10.1z"/>
	<path d="M93.1,11.2C93,11,93,10.8,93,10.6c0-0.9,1-1.4,2-1.4c1.4,0,1.8,1,1.8,1.7c0,0.6,0,1.7,0,2.5c0,0.4,0,0.7,0,0.9l0.8,0
		c0,0.2,0,0.2,0,0.4c-0.4,0.1-1.5,0.3-1.9,0.3c0-0.1-0.1-0.7-0.1-0.8c-0.3,0.5-0.9,0.8-1.4,0.8c-0.8,0-1.5-0.5-1.5-1.4
		c0-1.4,1.7-1.6,2.8-1.6c0,0,0-0.8,0-0.9c0-0.9-0.3-1.3-0.8-1.3c-0.6,0-1,0.3-1,0.8c0,0.2,0.1,0.4,0.1,0.6H93.1z M95.5,12.4
		c-0.8,0-1.5,0.2-1.5,0.9c0,0.4,0.2,0.9,0.7,0.9c0.3,0,0.6-0.1,0.8-0.4C95.5,13.5,95.5,12.7,95.5,12.4z"/>
	<path d="M101,10.1c0-0.3-0.2-0.4-0.4-0.4c-0.1,0-0.3,0-0.4,0c-0.6,0-1,0.3-1,0.7c0,0.5,0.6,0.8,1.1,1.2c1.3,0.6,1.6,1.1,1.6,1.9
		c0,1-1,1.6-2.2,1.6c-0.4,0-0.8-0.1-1.2-0.2l-0.4,0c0-0.3,0-1.1,0-1.7h0.7l0.1,0.9c0,0.2,0.1,0.3,0.3,0.3c0.2,0.1,0.3,0.1,0.5,0.1
		c0.6,0,1-0.3,1-0.8c0-0.4-0.1-0.6-1.1-1.2c-0.6-0.4-1.5-0.8-1.5-1.8c0-1.1,1-1.6,2.1-1.6c0.4,0,0.8,0.1,1.2,0.1c0.1,0,0.4,0,0.4,0
		c0,0.3,0,1.1,0,1.7h-0.7L101,10.1z"/>
</g>
</svg>
