<svg id="Layer_1" data-name="Layer 1" xmlns="http://www.w3.org/2000/svg" xmlns:xlink="http://www.w3.org/1999/xlink" viewBox="0 0 170 58">
  <defs>
    <clipPath id="clip-path">
      <rect y="0.03" width="169.28" height="57.7" fill="none"/>
    </clipPath>
    <clipPath id="clip-path-3">
      <path d="M132,10.45c0,5.55,6.87,10,15.33,10s15.33-4.5,15.33-10S155.78.4,147.32.4,132,4.9,132,10.45" fill="none"/>
    </clipPath>
    <linearGradient id="linear-gradient" x1="3.62" y1="0.04" x2="4.63" y2="0.04" gradientTransform="matrix(0, 15.86, 15.86, 0, 146.69, -57.08)" gradientUnits="userSpaceOnUse">
      <stop offset="0" stop-color="#b8ddf7"/>
      <stop offset="0.08" stop-color="#a2ceef"/>
      <stop offset="0.21" stop-color="#88bbe5"/>
      <stop offset="0.36" stop-color="#73acde"/>
      <stop offset="0.51" stop-color="#64a2d8"/>
      <stop offset="0.7" stop-color="#5c9cd5"/>
      <stop offset="1" stop-color="#599ad4"/>
    </linearGradient>
  </defs>
  <title>novice_logo_negativ</title>
  <g id="Sn_Trusted_brand_logo" data-name="Sn Trusted brand logo">
    <g clip-path="url(#clip-path)">
      <rect y="6.57" width="132.83" height="51.16" fill="#fff"/>
      <g clip-path="url(#clip-path)">
        <path d="M33.48,20.52c-2.8,0-3.92-1.29-3.86-3.5h3.07c0,1,.21,1.24.68,1.24a.56.56,0,0,0,.62-.6c0-1.39-4.27-1.14-4.27-4.56,0-1.93,1.47-3.11,3.75-3.11,2.53,0,3.81,1.18,3.73,3.48H34.14c0-.87-.12-1.16-.6-1.16a.49.49,0,0,0-.54.54c0,1.37,4.23,1.33,4.23,4.58,0,1.45-1.06,3.09-3.75,3.09" fill="#c20016"/>
        <rect x="38.29" y="6.55" width="3.5" height="13.81" fill="#c20016"/>
        <path d="M46.91,20.52C44.46,20.52,43,18.95,43,17V13.54C43,11.59,44.46,10,46.91,10s3.9,1.58,3.9,3.52V17c0,1.95-1.45,3.52-3.9,3.52m.5-7.32c0-.43-.14-.73-.5-.73s-.5.29-.5.73v4.13c0,.43.15.73.5.73s.5-.29.5-.73Z" fill="#c20016"/>
        <polygon points="57.21 20.36 53.71 20.36 51.2 10.18 54.66 10.18 55.35 14.47 55.58 16.15 55.78 14.47 56.45 10.18 59.74 10.18 57.21 20.36" fill="#c20016"/>
        <path d="M64,20.52c-2.45,0-3.88-1.56-3.88-3.52V13.54C60.11,11.59,61.54,10,64,10s3.88,1.55,3.88,3.52v2.18H63.49v1.6c0,.44,0,.75.54.75s.58-.25.58-1.49h3.25c0,2.78-1.43,4-3.88,4m.5-7.32c0-.43-.14-.73-.5-.73s-.5.29-.5.73v1.06h1Z" fill="#c20016"/>
        <path d="M73.54,20.36v-7c0-.44-.15-.75-.48-.75s-.54.31-.54.75v7H69V10.18h3l.12,1.33A2.66,2.66,0,0,1,74.62,10,2.31,2.31,0,0,1,77,12.5v7.86Z" fill="#c20016"/>
        <path d="M81.86,20.52c-2.8,0-3.92-1.29-3.86-3.5h3.07c0,1,.21,1.24.68,1.24a.56.56,0,0,0,.62-.6c0-1.39-4.27-1.14-4.27-4.56,0-1.93,1.47-3.11,3.75-3.11,2.53,0,3.81,1.18,3.73,3.48H82.52c0-.87-.12-1.16-.6-1.16a.49.49,0,0,0-.54.54c0,1.37,4.23,1.33,4.23,4.58,0,1.45-1.06,3.09-3.75,3.09" fill="#c20016"/>
        <polygon points="91.56 20.36 90.58 16.69 90.17 17.83 90.17 20.36 86.67 20.36 86.67 6.55 90.17 6.55 90.17 13.95 91.5 10.16 95.06 10.16 93.15 14.43 95.04 20.36 91.56 20.36" fill="#c20016"/>
        <path d="M99.33,20.52c-2.45,0-3.88-1.56-3.88-3.52V13.54c0-1.95,1.43-3.52,3.88-3.52s3.88,1.55,3.88,3.52v2.18H98.83v1.6c0,.44,0,.75.54.75s.58-.25.58-1.49h3.25c0,2.78-1.43,4-3.88,4m.5-7.32c0-.43-.14-.73-.5-.73s-.5.29-.5.73v1.06h1Z" fill="#c20016"/>
        <path d="M75.78,24.65H67.43L65.55,36.86,65,41.64l-.65-4.78L62.36,24.65H52.51l1.87,7.6a15.23,15.23,0,0,0-28,2.11v-3.1c0-4.31-2.77-7.08-6.84-7.08a7.57,7.57,0,0,0-7,4.25l-.35-3.77H3.58v29h10V33.73c0-1.24.47-2.12,1.53-2.12s1.36.88,1.36,2.12V53.61h9.91V43.9A15.23,15.23,0,0,0,56,39.13c0-.08,0-.15,0-.22l3.62,14.7h10l6.17-24.82V53.61h10v-29h-10Zm-35,21.16a6.68,6.68,0,1,1,6.68-6.68,6.68,6.68,0,0,1-6.68,6.68" fill="#c20016"/>
        <path d="M129.86,40.4V34.2c0-5.6-4.07-10-11-10-6.11,0-10,3.45-10.85,8-.94-5.45-4.27-8.1-10.4-8.1-7,0-11,4.19-11,10.08v9.85c0,5.9,4,10,11,10,6.13,0,9.46-2.57,10.4-8,.85,4.63,4.74,8,10.85,8,7,0,11-3.36,11-11.26H120.6c0,3.54-.18,4.24-1.65,4.24s-1.53-.88-1.53-2.12V40.4Zm-12.44-7.14c0-1.24.41-2.06,1.41-2.06s1.42.82,1.42,2.06v3h-2.83Zm-18,8.49V44.7c0,1.71-.41,2.36-1.53,2.36s-1.59-.59-1.59-2.24V33.44c0-1.71.41-2.24,1.59-2.24s1.53.65,1.53,2.3v2.95h8.39v5.31Z" fill="#c20016"/>
        <path d="M40.8,36.16a3,3,0,1,0,3,3,3,3,0,0,0-3-3" fill="#c22821"/>
        <path d="M169.28,21.95A21.92,21.92,0,1,1,147.37,0a21.92,21.92,0,0,1,21.92,21.92" fill="#2a3a61"/>
        <path d="M169.22,22A21.86,21.86,0,1,1,147.36.12,21.86,21.86,0,0,1,169.22,22" fill="#2a3a62"/>
        <path d="M169.16,22A21.8,21.8,0,1,1,147.36.21,21.8,21.8,0,0,1,169.16,22" fill="#2b3b62"/>
        <path d="M169.1,22A21.74,21.74,0,1,1,147.36.3,21.74,21.74,0,0,1,169.1,22" fill="#2b3b63"/>
        <path d="M169,22.07A21.68,21.68,0,1,1,147.36.39,21.68,21.68,0,0,1,169,22.07" fill="#2b3c63"/>
        <path d="M169,22.1A21.62,21.62,0,1,1,147.36.48,21.62,21.62,0,0,1,169,22.1" fill="#2b3c64"/>
        <path d="M168.92,22.13A21.56,21.56,0,1,1,147.36.58a21.56,21.56,0,0,1,21.56,21.56" fill="#2c3d64"/>
        <path d="M168.85,22.16A21.5,21.5,0,1,1,147.36.67a21.5,21.5,0,0,1,21.5,21.5" fill="#2c3d65"/>
        <path d="M168.79,22.19A21.44,21.44,0,1,1,147.36.76a21.44,21.44,0,0,1,21.44,21.44" fill="#2c3e65"/>
        <path d="M168.73,22.23A21.38,21.38,0,1,1,147.36.85a21.38,21.38,0,0,1,21.38,21.38" fill="#2c3e66"/>
        <path d="M168.67,22.26A21.32,21.32,0,1,1,147.35.94a21.32,21.32,0,0,1,21.32,21.32" fill="#2d3f66"/>
        <path d="M168.61,22.29A21.26,21.26,0,1,1,147.35,1a21.26,21.26,0,0,1,21.26,21.26" fill="#2d3f67"/>
        <path d="M168.55,22.32a21.2,21.2,0,1,1-21.2-21.2,21.2,21.2,0,0,1,21.2,21.2" fill="#2d4068"/>
        <path d="M168.49,22.35A21.14,21.14,0,1,1,147.35,1.21a21.14,21.14,0,0,1,21.14,21.14" fill="#2d4068"/>
        <path d="M168.42,22.38A21.08,21.08,0,1,1,147.35,1.3a21.08,21.08,0,0,1,21.08,21.08" fill="#2e4169"/>
        <path d="M168.36,22.41a21,21,0,1,1-21-21,21,21,0,0,1,21,21" fill="#2e4169"/>
        <path d="M168.3,22.44a21,21,0,1,1-21-21,21,21,0,0,1,21,21" fill="#2e426a"/>
        <path d="M168.24,22.47a20.89,20.89,0,1,1-20.9-20.89,20.9,20.9,0,0,1,20.9,20.89" fill="#2e436a"/>
        <path d="M168.18,22.5A20.83,20.83,0,1,1,147.34,1.67,20.84,20.84,0,0,1,168.18,22.5" fill="#2f436b"/>
        <path d="M168.12,22.53A20.77,20.77,0,1,1,147.34,1.76a20.77,20.77,0,0,1,20.77,20.77" fill="#2f446b"/>
        <path d="M168.05,22.56A20.71,20.71,0,1,1,147.34,1.85a20.71,20.71,0,0,1,20.71,20.71" fill="#2f446c"/>
        <path d="M168,22.6A20.65,20.65,0,1,1,147.34,1.94,20.65,20.65,0,0,1,168,22.6" fill="#2f456c"/>
        <path d="M167.93,22.63A20.59,20.59,0,1,1,147.34,2a20.59,20.59,0,0,1,20.59,20.59" fill="#30456d"/>
        <path d="M167.87,22.66A20.53,20.53,0,1,1,147.34,2.12a20.53,20.53,0,0,1,20.53,20.53" fill="#30466d"/>
        <path d="M167.81,22.69A20.47,20.47,0,1,1,147.34,2.21a20.47,20.47,0,0,1,20.47,20.47" fill="#30466e"/>
        <path d="M167.75,22.72A20.41,20.41,0,1,1,147.33,2.31a20.41,20.41,0,0,1,20.41,20.41" fill="#31476e"/>
        <path d="M167.69,22.75A20.35,20.35,0,1,1,147.33,2.4a20.35,20.35,0,0,1,20.35,20.35" fill="#31476f"/>
        <path d="M167.62,22.78A20.29,20.29,0,1,1,147.33,2.49a20.29,20.29,0,0,1,20.29,20.29" fill="#314870"/>
        <path d="M167.56,22.81A20.23,20.23,0,1,1,147.33,2.58a20.23,20.23,0,0,1,20.23,20.23" fill="#314870"/>
        <path d="M167.5,22.84A20.17,20.17,0,1,1,147.33,2.67,20.17,20.17,0,0,1,167.5,22.84" fill="#324971"/>
        <path d="M167.44,22.87A20.11,20.11,0,1,1,147.33,2.76a20.11,20.11,0,0,1,20.11,20.11" fill="#324971"/>
        <path d="M167.38,22.9A20.05,20.05,0,1,1,147.33,2.85,20.05,20.05,0,0,1,167.38,22.9" fill="#324a72"/>
        <path d="M167.32,22.94a20,20,0,1,1-20-20,20,20,0,0,1,20,20" fill="#334a72"/>
        <path d="M167.26,23A19.93,19.93,0,1,1,147.32,3,19.93,19.93,0,0,1,167.26,23" fill="#334b73"/>
        <path d="M167.19,23A19.87,19.87,0,1,1,147.32,3.13,19.87,19.87,0,0,1,167.19,23" fill="#334c74"/>
        <path d="M167.13,23A19.81,19.81,0,1,1,147.32,3.22,19.81,19.81,0,0,1,167.13,23" fill="#334c74"/>
        <path d="M167.07,23.06A19.75,19.75,0,1,1,147.32,3.31a19.75,19.75,0,0,1,19.75,19.75" fill="#344d75"/>
        <path d="M167,23.09A19.69,19.69,0,1,1,147.32,3.4,19.69,19.69,0,0,1,167,23.09" fill="#344d75"/>
        <path d="M166.95,23.12A19.63,19.63,0,1,1,147.32,3.49a19.63,19.63,0,0,1,19.63,19.63" fill="#344e76"/>
        <path d="M166.89,23.15A19.57,19.57,0,1,1,147.32,3.58a19.57,19.57,0,0,1,19.57,19.57" fill="#354e76"/>
        <path d="M166.82,23.18A19.51,19.51,0,1,1,147.31,3.67a19.51,19.51,0,0,1,19.51,19.51" fill="#354f77"/>
        <path d="M166.76,23.21A19.45,19.45,0,1,1,147.31,3.76a19.45,19.45,0,0,1,19.45,19.45" fill="#354f78"/>
        <path d="M166.7,23.24A19.39,19.39,0,1,1,147.31,3.85,19.39,19.39,0,0,1,166.7,23.24" fill="#355078"/>
        <path d="M166.64,23.27A19.33,19.33,0,1,1,147.31,3.95a19.33,19.33,0,0,1,19.33,19.33" fill="#365079"/>
        <path d="M166.58,23.31A19.27,19.27,0,1,1,147.31,4a19.27,19.27,0,0,1,19.27,19.27" fill="#365179"/>
        <path d="M166.52,23.34A19.21,19.21,0,1,1,147.31,4.13a19.21,19.21,0,0,1,19.21,19.21" fill="#36517a"/>
        <path d="M166.46,23.37A19.15,19.15,0,1,1,147.31,4.22a19.15,19.15,0,0,1,19.15,19.15" fill="#37527b"/>
        <path d="M166.39,23.4A19.09,19.09,0,1,1,147.31,4.31,19.09,19.09,0,0,1,166.39,23.4" fill="#37537b"/>
        <path d="M166.33,23.43a19,19,0,1,1-19-19,19,19,0,0,1,19,19" fill="#37537c"/>
        <path d="M166.27,23.46a19,19,0,1,1-19-19,19,19,0,0,1,19,19" fill="#37547c"/>
        <path d="M166.21,23.49A18.91,18.91,0,1,1,147.3,4.58a18.91,18.91,0,0,1,18.91,18.91" fill="#38547d"/>
        <path d="M166.15,23.52A18.85,18.85,0,1,1,147.3,4.67a18.85,18.85,0,0,1,18.85,18.85" fill="#38557e"/>
        <path d="M166.09,23.55A18.79,18.79,0,1,1,147.3,4.77a18.79,18.79,0,0,1,18.79,18.79" fill="#38557e"/>
        <path d="M166,23.58A18.73,18.73,0,1,1,147.3,4.86,18.73,18.73,0,0,1,166,23.58" fill="#39567f"/>
        <path d="M166,23.61A18.67,18.67,0,1,1,147.3,4.95,18.67,18.67,0,0,1,166,23.61" fill="#39567f"/>
        <path d="M165.9,23.64A18.61,18.61,0,1,1,147.3,5,18.61,18.61,0,0,1,165.9,23.64" fill="#395780"/>
        <path d="M165.84,23.68A18.55,18.55,0,1,1,147.29,5.13a18.55,18.55,0,0,1,18.55,18.55" fill="#395781"/>
        <path d="M165.78,23.71A18.49,18.49,0,1,1,147.29,5.22a18.49,18.49,0,0,1,18.49,18.49" fill="#3a5881"/>
        <path d="M165.72,23.74A18.43,18.43,0,1,1,147.29,5.31a18.43,18.43,0,0,1,18.43,18.43" fill="#3a5882"/>
        <path d="M165.66,23.77A18.37,18.37,0,1,1,147.29,5.4a18.37,18.37,0,0,1,18.37,18.37" fill="#3a5982"/>
        <path d="M165.59,23.8A18.31,18.31,0,1,1,147.29,5.49,18.31,18.31,0,0,1,165.59,23.8" fill="#3b5a83"/>
        <path d="M165.53,23.83A18.25,18.25,0,1,1,147.29,5.59a18.25,18.25,0,0,1,18.25,18.25" fill="#3b5a84"/>
        <path d="M165.47,23.86A18.18,18.18,0,1,1,147.29,5.68a18.19,18.19,0,0,1,18.18,18.18" fill="#3b5b84"/>
        <path d="M165.41,23.89A18.12,18.12,0,1,1,147.29,5.77a18.12,18.12,0,0,1,18.12,18.12" fill="#3c5b85"/>
        <path d="M165.35,23.92A18.06,18.06,0,1,1,147.28,5.86a18.06,18.06,0,0,1,18.06,18.06" fill="#3c5c85"/>
        <path d="M165.29,24a18,18,0,1,1-18-18,18,18,0,0,1,18,18" fill="#3c5c86"/>
        <path d="M165.23,24A17.94,17.94,0,1,1,147.28,6,17.94,17.94,0,0,1,165.23,24" fill="#3c5d87"/>
        <path d="M165.16,24A17.88,17.88,0,1,1,147.28,6.13,17.88,17.88,0,0,1,165.16,24" fill="#3d5d87"/>
        <path d="M165.1,24A17.82,17.82,0,1,1,147.28,6.22,17.82,17.82,0,0,1,165.1,24" fill="#3d5e88"/>
        <path d="M165,24.08A17.76,17.76,0,1,1,147.28,6.31,17.76,17.76,0,0,1,165,24.08" fill="#3d5e89"/>
        <path d="M165,24.11a17.7,17.7,0,1,1-17.7-17.7A17.7,17.7,0,0,1,165,24.11" fill="#3e5f89"/>
        <path d="M164.92,24.14A17.64,17.64,0,1,1,147.27,6.5a17.64,17.64,0,0,1,17.64,17.64" fill="#3e608a"/>
        <path d="M164.86,24.17A17.58,17.58,0,1,1,147.27,6.59a17.58,17.58,0,0,1,17.58,17.58" fill="#3e608b"/>
        <path d="M164.8,24.2A17.52,17.52,0,1,1,147.27,6.68,17.52,17.52,0,0,1,164.8,24.2" fill="#3e618b"/>
        <path d="M164.73,24.23A17.46,17.46,0,1,1,147.27,6.77a17.46,17.46,0,0,1,17.46,17.46" fill="#3f618c"/>
        <path d="M164.67,24.26a17.4,17.4,0,1,1-17.4-17.4,17.4,17.4,0,0,1,17.4,17.4" fill="#3f628d"/>
        <path d="M164.61,24.29A17.34,17.34,0,1,1,147.27,7a17.34,17.34,0,0,1,17.34,17.34" fill="#3f628d"/>
        <path d="M164.55,24.32A17.28,17.28,0,1,1,147.27,7a17.28,17.28,0,0,1,17.28,17.28" fill="#40638e"/>
        <path d="M164.49,24.35A17.22,17.22,0,1,1,147.27,7.13a17.22,17.22,0,0,1,17.22,17.22" fill="#40638f"/>
        <path d="M164.43,24.39A17.16,17.16,0,1,1,147.26,7.23a17.16,17.16,0,0,1,17.16,17.16" fill="#40648f"/>
        <path d="M164.37,24.42a17.1,17.1,0,1,1-17.1-17.1,17.1,17.1,0,0,1,17.1,17.1" fill="#416590"/>
        <path d="M164.3,24.45a17,17,0,1,1-17-17,17,17,0,0,1,17,17" fill="#416591"/>
        <path d="M164.24,24.48a17,17,0,1,1-17-17,17,17,0,0,1,17,17" fill="#416691"/>
        <path d="M164.18,24.51A16.92,16.92,0,1,1,147.26,7.59a16.92,16.92,0,0,1,16.92,16.92" fill="#426692"/>
        <path d="M164.12,24.54A16.86,16.86,0,1,1,147.26,7.68a16.86,16.86,0,0,1,16.86,16.86" fill="#426793"/>
        <path d="M164.06,24.57a16.8,16.8,0,1,1-16.8-16.8,16.8,16.8,0,0,1,16.8,16.8" fill="#426793"/>
        <path d="M164,24.6A16.74,16.74,0,1,1,147.26,7.86,16.74,16.74,0,0,1,164,24.6" fill="#426894"/>
        <path d="M163.93,24.63A16.68,16.68,0,1,1,147.25,8a16.68,16.68,0,0,1,16.68,16.68" fill="#436995"/>
        <path d="M163.87,24.66A16.62,16.62,0,1,1,147.25,8a16.62,16.62,0,0,1,16.62,16.62" fill="#436995"/>
        <path d="M163.81,24.69A16.56,16.56,0,1,1,147.25,8.14a16.56,16.56,0,0,1,16.56,16.56" fill="#436a96"/>
        <path d="M163.75,24.73a16.5,16.5,0,1,1-16.5-16.5,16.5,16.5,0,0,1,16.5,16.5" fill="#446a97"/>
        <path d="M163.69,24.76A16.44,16.44,0,1,1,147.25,8.32a16.44,16.44,0,0,1,16.44,16.44" fill="#446b98"/>
        <path d="M163.63,24.79A16.38,16.38,0,1,1,147.25,8.41a16.38,16.38,0,0,1,16.38,16.38" fill="#446c98"/>
        <path d="M163.57,24.82A16.32,16.32,0,1,1,147.25,8.5a16.32,16.32,0,0,1,16.32,16.32" fill="#446c99"/>
        <path d="M163.5,24.85A16.26,16.26,0,1,1,147.25,8.59,16.26,16.26,0,0,1,163.5,24.85" fill="#456d9a"/>
        <path d="M163.44,24.88a16.2,16.2,0,1,1-16.2-16.2,16.2,16.2,0,0,1,16.2,16.2" fill="#456e9b"/>
        <path d="M163.38,24.91A16.14,16.14,0,1,1,147.24,8.77a16.14,16.14,0,0,1,16.14,16.14" fill="#456e9b"/>
        <path d="M163.32,24.94A16.08,16.08,0,1,1,147.24,8.86a16.08,16.08,0,0,1,16.08,16.08" fill="#466f9c"/>
        <path d="M163.26,25a16,16,0,1,1-16-16,16,16,0,0,1,16,16" fill="#466f9d"/>
        <path d="M163.2,25a16,16,0,1,1-16-16,16,16,0,0,1,16,16" fill="#46709e"/>
        <path d="M163.14,25a15.9,15.9,0,1,1-15.9-15.9A15.9,15.9,0,0,1,163.14,25" fill="#47719e"/>
        <path d="M163.07,25.06A15.84,15.84,0,1,1,147.24,9.23a15.84,15.84,0,0,1,15.84,15.84" fill="#47719f"/>
        <path d="M163,25.1A15.78,15.78,0,1,1,147.24,9.32,15.78,15.78,0,0,1,163,25.1" fill="#4772a0"/>
        <path d="M163,25.13A15.72,15.72,0,1,1,147.23,9.41,15.72,15.72,0,0,1,163,25.13" fill="#4872a1"/>
        <path d="M162.89,25.16A15.66,15.66,0,1,1,147.23,9.5a15.66,15.66,0,0,1,15.66,15.66" fill="#4873a1"/>
        <path d="M162.83,25.19a15.6,15.6,0,1,1-15.6-15.59,15.6,15.6,0,0,1,15.6,15.59" fill="#4874a2"/>
        <path d="M162.77,25.22A15.54,15.54,0,1,1,147.23,9.68a15.54,15.54,0,0,1,15.54,15.53" fill="#4974a3"/>
        <path d="M162.7,25.25A15.47,15.47,0,1,1,147.23,9.78,15.47,15.47,0,0,1,162.7,25.25" fill="#4975a4"/>
        <path d="M162.64,25.28A15.41,15.41,0,1,1,147.23,9.87a15.42,15.42,0,0,1,15.42,15.41" fill="#4976a4"/>
        <path d="M162.58,25.31A15.35,15.35,0,1,1,147.23,10a15.35,15.35,0,0,1,15.35,15.35" fill="#4a76a5"/>
        <path d="M162.52,25.34A15.29,15.29,0,1,1,147.23,10a15.29,15.29,0,0,1,15.29,15.29" fill="#4a77a6"/>
        <path d="M162.46,25.37a15.23,15.23,0,1,1-15.23-15.23,15.23,15.23,0,0,1,15.23,15.23" fill="#4a78a7"/>
        <path d="M162.4,25.4a15.17,15.17,0,1,1-15.17-15.17A15.17,15.17,0,0,1,162.4,25.4" fill="#4b78a8"/>
        <path d="M162.34,25.44a15.11,15.11,0,1,1-15.11-15.11,15.11,15.11,0,0,1,15.11,15.11" fill="#4b79a8"/>
        <path d="M162.27,25.47a15.05,15.05,0,1,1-15.05-15.05,15.05,15.05,0,0,1,15.05,15.05" fill="#4b7aa9"/>
        <path d="M162.21,25.5a15,15,0,1,1-15-15,15,15,0,0,1,15,15" fill="#4b7aaa"/>
        <path d="M162.15,25.53a14.93,14.93,0,1,1-14.93-14.93,14.93,14.93,0,0,1,14.93,14.93" fill="#4c7bab"/>
        <path d="M162.09,25.56a14.87,14.87,0,1,1-14.87-14.87,14.87,14.87,0,0,1,14.87,14.87" fill="#4c7bac"/>
        <path d="M162,25.59a14.81,14.81,0,1,1-14.81-14.81A14.81,14.81,0,0,1,162,25.59" fill="#4c7cad"/>
        <path d="M162,25.62a14.75,14.75,0,1,1-14.75-14.75A14.75,14.75,0,0,1,162,25.62" fill="#4c7dad"/>
        <path d="M161.91,25.65A14.69,14.69,0,1,1,147.21,11a14.69,14.69,0,0,1,14.69,14.69" fill="#4d7dae"/>
        <path d="M161.84,25.68a14.63,14.63,0,1,1-14.63-14.63,14.63,14.63,0,0,1,14.63,14.63" fill="#4d7eaf"/>
        <path d="M161.78,25.71a14.57,14.57,0,1,1-14.57-14.57,14.57,14.57,0,0,1,14.57,14.57" fill="#4e7fb0"/>
        <path d="M161.72,25.74a14.51,14.51,0,1,1-14.51-14.51,14.51,14.51,0,0,1,14.51,14.51" fill="#4e7fb1"/>
        <path d="M161.66,25.77a14.45,14.45,0,1,1-14.45-14.45,14.45,14.45,0,0,1,14.45,14.45" fill="#4e80b2"/>
        <path d="M161.6,25.81a14.39,14.39,0,1,1-14.39-14.39A14.39,14.39,0,0,1,161.6,25.81" fill="#4f81b2"/>
        <path d="M161.54,25.84a14.33,14.33,0,1,1-14.33-14.33,14.33,14.33,0,0,1,14.33,14.33" fill="#4f82b3"/>
        <path d="M161.47,25.87A14.27,14.27,0,1,1,147.2,11.6a14.27,14.27,0,0,1,14.27,14.27" fill="#4f82b4"/>
        <path d="M161.41,25.9A14.21,14.21,0,1,1,147.2,11.69,14.21,14.21,0,0,1,161.41,25.9" fill="#4f83b5"/>
        <path d="M161.35,25.93A14.15,14.15,0,1,1,147.2,11.78a14.15,14.15,0,0,1,14.15,14.15" fill="#5084b6"/>
        <path d="M161.29,26A14.09,14.09,0,1,1,147.2,11.87,14.09,14.09,0,0,1,161.29,26" fill="#5084b7"/>
        <path d="M161.23,26a14,14,0,1,1-14-14,14,14,0,0,1,14,14" fill="#5185b8"/>
        <path d="M161.17,26a14,14,0,1,1-14-14,14,14,0,0,1,14,14" fill="#5186b8"/>
        <path d="M161.11,26.05A13.91,13.91,0,1,1,147.2,12.14a13.91,13.91,0,0,1,13.91,13.91" fill="#5187b9"/>
        <path d="M161,26.08a13.85,13.85,0,1,1-13.85-13.85A13.85,13.85,0,0,1,161,26.08" fill="#5287ba"/>
        <path d="M161,26.11a13.79,13.79,0,1,1-13.79-13.79A13.79,13.79,0,0,1,161,26.11" fill="#5288bb"/>
        <path d="M160.92,26.14a13.73,13.73,0,1,1-13.73-13.73,13.73,13.73,0,0,1,13.73,13.73" fill="#5289bc"/>
        <path d="M160.86,26.18a13.67,13.67,0,1,1-13.67-13.67,13.67,13.67,0,0,1,13.67,13.67" fill="#5289bd"/>
        <path d="M160.8,26.21A13.61,13.61,0,1,1,147.19,12.6,13.61,13.61,0,0,1,160.8,26.21" fill="#538abe"/>
        <path d="M160.74,26.24a13.55,13.55,0,1,1-13.55-13.55,13.55,13.55,0,0,1,13.55,13.55" fill="#538bbf"/>
        <path d="M160.68,26.27a13.49,13.49,0,1,1-13.49-13.49,13.49,13.49,0,0,1,13.49,13.49" fill="#548cc0"/>
        <path d="M160.61,26.3a13.43,13.43,0,1,1-13.43-13.43A13.43,13.43,0,0,1,160.61,26.3" fill="#548cc1"/>
        <path d="M160.55,26.33A13.37,13.37,0,1,1,147.18,13a13.37,13.37,0,0,1,13.37,13.37" fill="#548dc2"/>
        <path d="M160.49,26.36a13.31,13.31,0,1,1-13.31-13.31,13.31,13.31,0,0,1,13.31,13.31" fill="#548ec3"/>
        <path d="M160.43,26.39a13.25,13.25,0,1,1-13.25-13.25,13.25,13.25,0,0,1,13.25,13.25" fill="#558fc4"/>
        <path d="M160.37,26.42a13.19,13.19,0,1,1-13.19-13.19,13.19,13.19,0,0,1,13.19,13.19" fill="#558fc5"/>
        <path d="M160.31,26.45a13.13,13.13,0,1,1-13.13-13.13,13.13,13.13,0,0,1,13.13,13.13" fill="#5690c6"/>
        <path d="M160.24,26.48a13.07,13.07,0,1,1-13.07-13.07,13.07,13.07,0,0,1,13.07,13.07" fill="#5691c7"/>
        <path d="M160.18,26.52a13,13,0,1,1-13-13,13,13,0,0,1,13,13" fill="#5692c8"/>
        <path d="M160.12,26.55A12.95,12.95,0,1,1,147.18,13.6a12.95,12.95,0,0,1,12.95,12.95" fill="#5793c9"/>
        <path d="M160.06,26.58a12.89,12.89,0,1,1-12.89-12.89,12.89,12.89,0,0,1,12.89,12.89" fill="#5793ca"/>
        <path d="M160,26.61a12.83,12.83,0,1,1-12.83-12.83A12.83,12.83,0,0,1,160,26.61" fill="#5794cc"/>
        <path d="M159.94,26.64a12.76,12.76,0,1,1-12.76-12.76,12.76,12.76,0,0,1,12.76,12.76" fill="#5895cd"/>
        <path d="M159.88,26.67A12.7,12.7,0,1,1,147.17,14a12.7,12.7,0,0,1,12.7,12.7" fill="#5896ce"/>
        <path d="M159.81,26.7a12.64,12.64,0,1,1-12.64-12.64A12.64,12.64,0,0,1,159.81,26.7" fill="#5897cf"/>
        <path d="M159.75,26.73a12.58,12.58,0,1,1-12.58-12.58,12.58,12.58,0,0,1,12.58,12.58" fill="#5998d1"/>
        <path d="M159.69,26.76a12.52,12.52,0,1,1-12.52-12.52,12.52,12.52,0,0,1,12.52,12.52" fill="#5999d3"/>
        <path d="M159.63,26.79a12.46,12.46,0,1,1-12.46-12.46,12.46,12.46,0,0,1,12.46,12.46" fill="#599ad4"/>
      </g>
      <g clip-path="url(#clip-path-3)">
        <rect x="131.98" y="0.4" width="30.67" height="20.1" fill="url(#linear-gradient)"/>
      </g>
      <g clip-path="url(#clip-path)">
        <path d="M133,19.95l-.75-1.36.62-1.34a9.74,9.74,0,0,0-1.43.25,6.65,6.65,0,0,0-1-1,4.62,4.62,0,0,0-.22,1.47,6.75,6.75,0,0,0-1.36.73,4.8,4.8,0,0,0,1.39.64c.05.85.14,1.54.14,1.54l1.09-1.1,1.46.21v0l.11,0" fill="#fff"/>
        <polygon points="147.32 23.05 147.31 23.06 147.3 25.43 148.85 24.86 147.32 23.05" fill="#fff"/>
        <path d="M142.13,26.24l.35-.13c.53-.19,1.1-.48.87-1.11s-.83-.44-1.37-.25l-.35.13Z" fill="#fff"/>
        <path d="M138.93,26.57c-.21-.59-.77-.43-1.26-.26l-.41.15.45,1.25.43-.16c.45-.16,1-.46.78-1" fill="#fff"/>
        <polygon points="151.41 20.41 154.82 23.46 154.84 23.45 153.46 19.67 151.41 20.41" fill="#fff"/>
        <path d="M154.48,19.3l1.84,5.06-1.3.48-3.41-3h0L153,25.58l-1,.37-1.84-5.06-2.53.92,3.93,4.3-1.18.43-.88-1-2.16.79,0,1.33-1.11.4.23-5.82L141.66,24c1.09-.39,2.3-.77,2.77.54a1.25,1.25,0,0,1-.67,1.57v0a.82.82,0,0,1,.76.32l1.58,1.67-1.19.43-1.22-1.35a.7.7,0,0,0-.93-.25l-.34.13.77,2.1-1.07.39-1.84-5.06-2.52.92c.69-.25,1.79-.44,2.19.67a1.23,1.23,0,0,1-.65,1.52v0a1.28,1.28,0,0,1,1.64.71c.46,1.28-.67,1.9-1.34,2.15l-1.86.68-1.84-5.06-2,.73a14.47,14.47,0,0,0,27.19-9.9l-4.14,1.51c1.63-.59,3.25-.59,4,1.42s-.52,3.06-2.15,3.65l-1.46.53-1.84-5.06Z" fill="#fff"/>
        <path d="M158.69,22.59a1.84,1.84,0,1,0-1.26-3.47l-.6.22,1.26,3.47Z" fill="#fff"/>
        <path d="M138,28.47l.53,1.47.5-.18c.5-.18,1.06-.52.84-1.1s-.84-.56-1.37-.36Z" fill="#fff"/>
        <path d="M133.95,29.65l-.75-1.36.62-1.34a9.85,9.85,0,0,0-1.43.25,6.66,6.66,0,0,0-1-1.05,4.66,4.66,0,0,0-.22,1.47,6.69,6.69,0,0,0-1.36.73,4.78,4.78,0,0,0,1.39.64c.05.85.14,1.54.14,1.54l1.09-1.1,1.46.22v0l.11,0m-3.15-5,1.33.19h0l.1,0-.68-1.24.57-1.22a8.94,8.94,0,0,0-1.31.23,6,6,0,0,0-1-1,4.3,4.3,0,0,0-.2,1.34,6.1,6.1,0,0,0-1.24.66,4.35,4.35,0,0,0,1.27.59c0,.78.13,1.41.13,1.41Z" fill="#fff"/>
        <path d="M165.31,18.27l-.75-1.36.62-1.33a9.61,9.61,0,0,0-1.43.25,6.7,6.7,0,0,0-1-1.05,4.69,4.69,0,0,0-.22,1.47,6.75,6.75,0,0,0-1.36.73,4.82,4.82,0,0,0,1.39.64c.05.85.14,1.54.14,1.54l1.09-1.1,1.46.22v0l.11,0m-5.41-8.08.11,0-.75-1.36.62-1.33a9.8,9.8,0,0,0-1.43.25,6.62,6.62,0,0,0-1-1.05,4.69,4.69,0,0,0-.21,1.47,6.72,6.72,0,0,0-1.36.73,4.76,4.76,0,0,0,1.39.64c.05.86.14,1.54.14,1.54l1.09-1.1,1.46.22v0m3.09,3.5v0l.1,0-.68-1.24.57-1.22a8.81,8.81,0,0,0-1.31.23,6,6,0,0,0-1-1,4.28,4.28,0,0,0-.2,1.34,6.07,6.07,0,0,0-1.24.66,4.37,4.37,0,0,0,1.27.59c0,.78.13,1.41.13,1.41l1-1Z" fill="#fff"/>
        <path d="M147.63,18.88h-.71c-.54,0-.61-.07-.67-.21s.24-.43.44-.51a3,3,0,0,1,1.1-.16H148l-.33-1.13h-.09a4.45,4.45,0,0,0-1.4.31c-1.21.44-1.79,1.28-1.48,2.14s.75,1,1.69,1h.34c.47,0,.63,0,.7.2s.13.36-.47.58a3.14,3.14,0,0,1-1.21.15l-.17,0,.34,1.26.13,0a6.56,6.56,0,0,0,1.44-.33c1.33-.49,1.92-1.36,1.56-2.34a1.33,1.33,0,0,0-1.38-.87m-3.79-.78-.11,0-1.47.53,1.05,2.89c.19.51.12.76-.24.89a.5.5,0,0,1-.4,0,.84.84,0,0,1-.36-.53L141.27,19l-1.58.58,1,2.85c.43,1.18,1.4,1.56,2.74,1.08s1.84-1.41,1.41-2.59Zm10.92,0-.26-.72,1.72-.62-.4-1.09-1.72.62-.23-.62,1.8-.66-.4-1.09-.11,0-3.27,1.19,1.68,4.61,3.48-1.27-.4-1.09-1.9.69m-2.63-1.77-.41-1.11-.11,0-3.72,1.35.4,1.11,1.11-.4,1.27,3.5,1.61-.59L151,16.74l1.11-.4m9-1.94,0-.11-.46.46,0-.24s-.07-.51-.11-1.13a2.48,2.48,0,0,0-2.66-.37l-2.1.76,1.68,4.61,1.88-.69c1.76-.64,2.4-1.79,1.84-3.31m-2.31,2.27-.19.07-.89-2.46c.66-.24,1.34-.32,1.73.77.3.81.08,1.35-.64,1.62m-19.43,5.69a1.14,1.14,0,0,0,.42-1.32c-.21-.59-.77-1.18-2.22-.66l-2.06.75-.11,0,1.68,4.61,1.61-.59-.62-1.72c.18-.06.35-.07.59.23l.89,1.17,1.67-.61-1.07-1.33a1.39,1.39,0,0,0-.78-.59m-1.45,0-.3.11-.28-.77.27-.1c.22-.08.51-.1.63.23a.45.45,0,0,1-.33.53m-2.28,0-.4-1.11-.11,0-2.82,1-.57,1.22.08.22,1.11-.4,1.27,3.5,1.61-.59-1.27-3.5,1.11-.4" fill="#fff"/>
        <path d="M136.69,37.14l-.68-.46L137.83,34l1.07.73c.71.48.85,1.06.5,1.58a1,1,0,0,1-1.07.4l0,1.52-.76-.52.08-1.26-.33-.19ZM138,36c.3.18.54.16.72-.09s.08-.46-.27-.69l-.29-.19-.51.75Z" fill="#fff"/>
        <path d="M139.9,37.87a.55.55,0,0,0,.37.72,1.64,1.64,0,0,0,.81.11l-.18.59a2.15,2.15,0,0,1-.93-.21,1.2,1.2,0,0,1-.7-1.7,1.23,1.23,0,0,1,1.72-.64,1,1,0,0,1,.54,1.35,1.77,1.77,0,0,1-.22.36l-1.4-.6Zm.93,0,0,0c.12-.26.08-.47-.14-.57a.5.5,0,0,0-.63.27Z" fill="#fff"/>
        <path d="M143,39.75a.85.85,0,0,1-.76.17.69.69,0,0,1-.53-.83c.12-.44.54-.7,1.59-.45v0c.07-.24,0-.39-.31-.46a2,2,0,0,0-.85,0v-.61a2.42,2.42,0,0,1,1.14,0c.8.22,1,.65.78,1.3l-.19.69c0,.16,0,.18.14.24l-.22.53c-.52-.07-.73-.27-.77-.56Zm.2-.75c-.49-.07-.69,0-.74.17a.27.27,0,0,0,.22.33.49.49,0,0,0,.4-.06Z" fill="#fff"/>
        <path d="M146.37,37.16l.8,0-.35,3.49-.79-.08,0-.25a.94.94,0,0,1-.7.25,1.09,1.09,0,0,1-.9-1.34A1.22,1.22,0,0,1,145.78,38a1.52,1.52,0,0,1,.48.13Zm-.52,1.48c-.33,0-.56.22-.6.61s.14.67.43.7a.53.53,0,0,0,.42-.12l.11-1a.64.64,0,0,0-.35-.14" fill="#fff"/>
        <path d="M148.11,39.59c0,.32.28.49.66.47a1.61,1.61,0,0,0,.77-.28l.11.61a2.15,2.15,0,0,1-.92.25,1.2,1.2,0,0,1-1.41-1.17,1.23,1.23,0,0,1,1.22-1.37,1,1,0,0,1,1.11.94,1.82,1.82,0,0,1,0,.43l-1.52.11Zm.81-.46v0c0-.28-.14-.45-.39-.44a.5.5,0,0,0-.43.54Z" fill="#fff"/>
        <path d="M151.27,40.22l-.78.16L150,38.07l.76-.26.07.34a.64.64,0,0,1,.49-.48.86.86,0,0,1,.41,0l0,.72a.68.68,0,0,0-.31,0,.59.59,0,0,0-.43.45Z" fill="#fff"/>
        <path d="M152.14,36.43a.63.63,0,0,1,.79.43,1.35,1.35,0,0,1-.5,1.27l-.43-.19c.21-.27.38-.51.32-.67s-.18-.2-.56-.23a.53.53,0,0,1,.38-.61" fill="#fff"/>
        <path d="M154.71,39.23a2.47,2.47,0,0,1-1,.2l-.08-.59a2,2,0,0,0,.9-.13c.19-.08.27-.19.22-.31s-.2-.12-.47-.07c-.55.12-1,.06-1.14-.37s.06-.86.68-1.12a2.6,2.6,0,0,1,1-.19l.07.59a2.05,2.05,0,0,0-.84.12c-.18.07-.25.17-.2.28s.21.11.47.06c.57-.11,1-.07,1.14.38s0,.88-.7,1.15" fill="#fff"/>
        <path d="M158.27,37.17l-.93.68-1.91-2.6,1-.72a1.56,1.56,0,0,1,2.37.23,1.6,1.6,0,0,1-.51,2.4m-1.52-2.07-.27.2,1.13,1.54.31-.22a1,1,0,1,0-1.16-1.52" fill="#fff"/>
        <path d="M158.58,33.35a.43.43,0,1,1,0-.63.41.41,0,0,1,0,.63m1.63,2.23-1.65-1.68.5-.63L160.78,35Z" fill="#fff"/>
        <path d="M161,34.46a.62.62,0,0,1-.1-.72.81.81,0,0,1-.88-.09,1,1,0,0,1,0-1.47,1.81,1.81,0,0,1,.59-.46l.38-.56.53.37-.35.32a.5.5,0,0,1,.25.11,1,1,0,0,1,0,1.36,1.8,1.8,0,0,1-.23.23.22.22,0,0,0,0,.22c.08.07.19,0,.39-.25l.18-.22c.41-.51.82-.76,1.22-.44s.32,1.18-.17,1.79-.89.79-1.22.52a.56.56,0,0,1,0-.76.51.51,0,0,1-.6.06M161,33c.15-.19.08-.38-.13-.55a.36.36,0,0,0-.56,0c-.14.18-.09.39.12.56a.37.37,0,0,0,.57,0m.89,1.49c.14.12.39,0,.62-.27s.33-.6.17-.73-.31,0-.57.33l-.31.36a.29.29,0,0,0,.09.31" fill="#fff"/>
        <path d="M162.59,31a.55.55,0,0,0,.75-.31,1.63,1.63,0,0,0,.18-.8l.57.23a2.16,2.16,0,0,1-.29.91,1.2,1.2,0,0,1-1.75.55,1.23,1.23,0,0,1-.49-1.77,1,1,0,0,1,1.39-.42,1.78,1.78,0,0,1,.34.25L162.58,31Zm.05-.93,0,0c-.25-.14-.46-.12-.58.09a.5.5,0,0,0,.22.65Z" fill="#fff"/>
        <path d="M164.92,28.66a2.48,2.48,0,0,1-.56.88l-.48-.35a2,2,0,0,0,.52-.74c.08-.2,0-.33-.07-.37s-.22.06-.38.29c-.3.48-.62.74-1.06.58s-.58-.64-.35-1.26a2.6,2.6,0,0,1,.54-.84l.48.35a2.08,2.08,0,0,0-.49.7c-.07.18,0,.3.07.34s.22-.08.37-.3c.32-.49.61-.74,1.06-.57s.6.64.36,1.3" fill="#fff"/>
        <path d="M165.71,26c-.13.58-.44.83-1,.66l-.88-.24-.14.34-.49-.13,0-.38-.53-.13.17-.75.56.14.14-.58.6.16-.15.62.83.22a.28.28,0,0,0,.38-.23,1.05,1.05,0,0,0,0-.32l.62.05a1.8,1.8,0,0,1,0,.59" fill="#fff"/>
        <path d="M131.21,13.19a.31.31,0,1,1-.13-.39.27.27,0,0,1,.13.39m2.43,1.56-2.08-1.13.14-.4,2.14,1.16Z" fill="#fff"/>
        <polygon points="133.97 14.11 133.66 13.9 133.09 11.87 132.35 12.97 132.03 12.75 133.05 11.23 133.34 11.42 133.93 13.47 134.69 12.33 135.01 12.54 133.97 14.11" fill="#fff"/>
        <path d="M135.86,11.68a2,2,0,0,1-.4.33l-.22.37L132.59,10l.23-.36,1,.93a1,1,0,0,1,.22-.69,1.1,1.1,0,0,1,1.63.05,1.2,1.2,0,0,1,.14,1.74m-1.54-1.46a.86.86,0,0,0-.21.58l1,.9a.82.82,0,0,0,.48-.28.78.78,0,0,0-.15-1.14c-.39-.35-.82-.38-1.11-.06" fill="#fff"/>
        <path d="M137.67,10A1.14,1.14,0,0,1,136,9.7,1.16,1.16,0,0,1,136.1,8a1.14,1.14,0,0,1,1.68.27,1.16,1.16,0,0,1-.11,1.71m-1.34-1.67a.76.76,0,0,0,0,1.14.77.77,0,0,0,1.13.22.75.75,0,0,0,0-1.14.78.78,0,0,0-1.13-.23" fill="#fff"/>
        <path d="M139.2,8.77l-.36.22-1.22-2,.33-.28.22.36a.75.75,0,0,1,.35-.7.86.86,0,0,1,.44-.13l.11.4a.73.73,0,0,0-.38.1.76.76,0,0,0-.28.74Z" fill="#fff"/>
        <path d="M141.84,7.55a2,2,0,0,1-.51.11l-.37.22L139.7,4.56l.37-.21.5,1.31a1,1,0,0,1,.51-.51,1.1,1.1,0,0,1,1.43.79,1.2,1.2,0,0,1-.67,1.61m-.7-2a.86.86,0,0,0-.45.42l.48,1.26a.82.82,0,0,0,.55,0,.78.78,0,0,0,.39-1.09c-.19-.49-.55-.72-1-.56" fill="#fff"/>
        <path d="M143.69,6.89l-.41.1-.54-2.31.4-.16.09.41a.75.75,0,0,1,.55-.56.84.84,0,0,1,.46,0l0,.41a.73.73,0,0,0-.39,0c-.22.05-.39.26-.49.62Z" fill="#fff"/>
        <path d="M146.12,6.23a.84.84,0,0,1-.61.4.7.7,0,0,1-.82-.59c0-.42.22-.82,1.31-1V5c0-.38-.21-.52-.59-.48a1.5,1.5,0,0,0-.73.34l-.12-.37a1.66,1.66,0,0,1,.85-.37c.64-.07.95.17,1,.82l.11,1c0,.19.05.23.26.21v.36c-.38.07-.56,0-.64-.24ZM146,5.31c-.69.17-.93.34-.9.63a.37.37,0,0,0,.45.32.75.75,0,0,0,.51-.31Z" fill="#fff"/>
        <polygon points="147.08 6.44 147.05 2.96 147.48 2.89 147.5 6.44 147.08 6.44" fill="#fff"/>
        <path d="M149,6.6a1.12,1.12,0,0,1-1-1.36,1.17,1.17,0,0,1,1.31-1.14,1.39,1.39,0,0,1,.74.27l-.14.37a1.13,1.13,0,0,0-.63-.26c-.48,0-.78.26-.83.79s.22.9.66.94a1.22,1.22,0,0,0,.7-.13l0,.4a1.49,1.49,0,0,1-.79.12" fill="#fff"/>
        <path d="M150.66,5.65a.77.77,0,0,0,.57,1,1.31,1.31,0,0,0,.73,0l0,.4a1.55,1.55,0,0,1-.82,0,1.16,1.16,0,0,1-.88-1.48,1.19,1.19,0,0,1,1.43-1,.84.84,0,0,1,.66,1.11,1.42,1.42,0,0,1-.14.35l-1.55-.36Zm1.28,0v0a.5.5,0,0,0-.39-.69.69.69,0,0,0-.8.45Z" fill="#fff"/>
        <polygon points="153.25 7.59 152.88 7.45 152.88 4.91 153.3 5.07 153.28 7.03 154.56 5.57 154.98 5.73 153.25 7.59" fill="#fff"/>
        <path d="M146.62,33.77l-.15-.43.27-.49c.46-.85.67-1.31.54-1.67a.46.46,0,0,0-.66-.27,1.21,1.21,0,0,0-.57.48l-.38-.44a1.78,1.78,0,0,1,.89-.67,1,1,0,0,1,1.42.58,2,2,0,0,1-.35,1.61l-.2.34h0l1.16-.41.21.59Z" fill="#599ad4"/>
        <path d="M150.32,32.52c-.8.28-1.4-.31-1.71-1.18s-.19-1.73.6-2,1.4.33,1.7,1.17.18,1.74-.59,2Zm-.18-.55c.28-.1.31-.5.06-1.2s-.52-1-.8-.89-.32.5-.07,1.2.54,1,.81.89Z" fill="#599ad4"/>
        <polygon points="151.55 29.28 151.54 29.29 151.05 29.77 150.74 29.28 151.42 28.61 152.02 28.4 153.11 31.47 152.41 31.72 151.55 29.28" fill="#599ad4"/>
        <polygon points="154.76 27.43 154.92 27.88 154.58 30.95 153.82 31.22 154.21 28.3 154.21 28.29 152.8 28.79 152.59 28.19 154.76 27.43" fill="#599ad4"/>
      </g>
    </g>
  </g>
</svg>
