<?xml version="1.0" encoding="utf-8"?>
<!-- Generator: Adobe Illustrator 21.1.0, SVG Export Plug-In . SVG Version: 6.00 Build 0)  -->
<svg version="1.1" id="Layer_1" xmlns="http://www.w3.org/2000/svg" xmlns:xlink="http://www.w3.org/1999/xlink" x="0px" y="0px"
	 viewBox="0 0 170 64" style="enable-background:new 0 0 170 64;" xml:space="preserve">
<style type="text/css">
	.st0{fill:none;}
	.st1{fill:#C20016;}
	.st2{fill:#C22821;}
</style>
<title>Novice_logo_red</title>
<g>
	<rect x="1.9" class="st0" width="166.1" height="64"/>
	<g id="logo">
		<rect x="1.9" class="st0" width="166.1" height="64"/>
		<g>
			<path class="st1" d="M43.8,17.5c-3.5,0-4.9-1.6-4.8-4.4h3.8c0,1.2,0.3,1.6,0.9,1.6c0.4,0,0.7-0.2,0.8-0.6c0,0,0-0.1,0-0.1
				c0-1.7-5.3-1.4-5.3-5.7c0-2.4,1.8-3.9,4.7-3.9c3.2,0,4.8,1.5,4.7,4.4h-3.8c0-1.1-0.2-1.4-0.8-1.4c-0.3,0-0.6,0.2-0.7,0.5
				c0,0,0,0.1,0,0.1c0,1.7,5.3,1.7,5.3,5.7C48.5,15.4,47.2,17.5,43.8,17.5"/>
			<rect x="49.8" class="st2" width="4.4" height="17.3"/>
			<path class="st1" d="M60.6,17.5c-3.1,0-4.8-2-4.8-4.4V8.7c0-2.4,1.8-4.4,4.8-4.4s4.9,2,4.9,4.4v4.3
				C65.5,15.5,63.7,17.5,60.6,17.5 M61.2,8.3c0-0.5-0.2-0.9-0.6-0.9S60,7.8,60,8.3v5.2c0,0.5,0.2,0.9,0.6,0.9s0.6-0.4,0.6-0.9V8.3z"
				/>
			<polygon class="st1" points="73.5,17.3 69.1,17.3 66,4.5 70.3,4.5 71.2,9.9 71.4,12 71.7,9.9 72.5,4.5 76.7,4.5 			"/>
			<path class="st1" d="M82,17.5c-3.1,0-4.8-1.9-4.8-4.4V8.7c0-2.4,1.8-4.4,4.8-4.4s4.8,1.9,4.8,4.4v2.7h-5.5v2
				c0,0.5,0.1,0.9,0.7,0.9s0.7-0.3,0.7-1.9h4.1C86.8,16,85,17.5,82,17.5 M82.6,8.4c0-0.5-0.2-0.9-0.6-0.9s-0.6,0.4-0.6,0.9v1.3h1.2
				L82.6,8.4z"/>
			<path class="st1" d="M93.9,17.3V8.5c0-0.5-0.2-0.9-0.6-0.9S92.7,8,92.7,8.5v8.7h-4.4V4.5H92l0.2,1.7c0.6-1.2,1.8-1.9,3.1-1.9
				c1.6-0.1,2.9,1.2,3,2.8c0,0.1,0,0.2,0,0.3v9.8H93.9z"/>
			<path class="st1" d="M104.3,17.5c-3.5,0-4.9-1.6-4.8-4.4h3.8c0,1.2,0.3,1.6,0.9,1.6c0.4,0,0.7-0.2,0.8-0.6c0,0,0-0.1,0-0.1
				c0-1.7-5.3-1.4-5.3-5.7c0-2.4,1.8-3.9,4.7-3.9c3.2,0,4.8,1.5,4.7,4.4h-3.8c0-1.1-0.2-1.4-0.8-1.4c-0.3,0-0.6,0.2-0.7,0.5
				c0,0,0,0.1,0,0.1c0,1.7,5.3,1.7,5.3,5.7C109,15.4,107.7,17.5,104.3,17.5"/>
			<polygon class="st1" points="116.4,17.3 115.2,12.7 114.7,14.1 114.7,17.3 110.3,17.3 110.3,0 114.7,0 114.7,9.3 116.4,4.5 
				120.8,4.5 118.4,9.9 120.8,17.3 			"/>
			<path class="st1" d="M126.2,17.5c-3.1,0-4.8-1.9-4.8-4.4V8.7c0-2.4,1.8-4.4,4.8-4.4c3.1,0,4.8,1.9,4.8,4.4v2.7h-5.5v2
				c0,0.5,0.1,0.9,0.7,0.9s0.7-0.3,0.7-1.9h4.1C131,16,129.2,17.5,126.2,17.5 M126.8,8.4c0-0.5-0.2-0.9-0.6-0.9s-0.6,0.4-0.6,0.9
				v1.3h1.2L126.8,8.4z"/>
			<path class="st1" d="M96.7,22.6H86.3l-2.4,15.3l-0.7,6l-0.8-6l-2.4-15.3H67.6l2.4,9.5c-4.7-9.4-16.1-13.2-25.5-8.5
				c-4.5,2.3-8,6.3-9.6,11.1v-3.9c0-5.4-3.5-8.9-8.5-8.9c-3.7-0.1-7.1,2-8.8,5.3l-0.4-4.7H6.4v36.2h12.5V34c0-1.5,0.6-2.7,1.9-2.7
				s1.7,1.1,1.7,2.7v24.8h12.4V46.7c3.2,10,13.8,15.6,23.8,12.4c8-2.5,13.4-10,13.3-18.4c0-0.1,0-0.2,0-0.3l4.5,18.4H89l7.7-31v31
				h12.5V22.6H96.7z M53,49.1c-4.6,0-8.4-3.7-8.4-8.3s3.7-8.4,8.3-8.4s8.4,3.7,8.4,8.3v0C61.4,45.4,57.6,49.1,53,49.1"/>
			<path class="st1" d="M164.3,42.3v-7.8c0-7-5.1-12.5-13.8-12.5c-7.6,0-12.5,4.3-13.6,10.1c-1.2-6.8-5.3-10.1-13-10.1
				c-8.7,0-13.7,5.2-13.7,12.6v12.3c0,7.4,5,12.5,13.7,12.5c7.7,0,11.8-3.2,13-10.1c1.1,5.8,5.9,10.1,13.6,10.1
				c8.7,0,13.8-4.2,13.8-14.1h-11.6c0,4.4-0.2,5.3-2.1,5.3s-1.9-1.1-1.9-2.7v-5.7H164.3z M148.8,33.4c0-1.5,0.5-2.6,1.8-2.6
				s1.8,1,1.8,2.6v3.8h-3.5L148.8,33.4z M126.3,44v3.7c0,2.1-0.5,3-1.9,3s-2-0.7-2-2.8V33.6c0-2.1,0.5-2.8,2-2.8s1.9,0.8,1.9,2.9
				v3.7h10.5V44H126.3z"/>
			<path class="st2" d="M53,37c-2,0-3.7,1.7-3.7,3.7s1.7,3.7,3.7,3.7s3.7-1.7,3.7-3.7l0,0C56.7,38.7,55.1,37,53,37"/>
		</g>
	</g>
</g>
</svg>
